<?xml version="1.0" encoding="UTF-8"?><svg id="Layer_1" xmlns="http://www.w3.org/2000/svg" viewBox="0 0 99.154 20.5006"><path d="M29.3812,9.396l1.3146-4.099,1.315,4.099h1.1526l1.5908-5.7547h-1.1443l-1.0391,3.9772-1.2822-3.9772h-1.1609l-1.2742,3.9608-1.0551-3.9608h-1.185l1.5988,5.7547h1.169ZM38.537,8.2514l-.9008-.2679c-.1302.357-.4061.6088-.9094.6088-.5354,0-.982-.3814-1.0063-.9091h2.857c0-.0161.0163-.1787.0163-.3329,0-1.2822-.7385-2.0698-1.9722-2.0698-1.023,0-1.9643.8279-1.9643,2.1024,0,1.3473.9659,2.1346,2.0615,2.1346.9822,0,1.6152-.5764,1.8182-1.2662ZM36.6376,6.1573c.6169,0,.8767.3897.8928.7872h-1.7856c.0244-.3651.3327-.7872.8928-.7872ZM45.1605,9.3553v-.8928c-.0571.0163-.203.0324-.3329.0324-.3084,0-.4707-.1136-.4707-.4626v-1.672h.8036v-.9579h-.8036v-1.1931h-.9742v.5598c0,.3573-.1944.6332-.6166.6332h-.2028v.9579h.7222v1.8587c0,.7712.487,1.2338,1.2664,1.2338.3164,0,.5111-.0568.6086-.0975ZM40.6803,8.6898c-.4709,0-.7064-.2922-.7308-.6088l-.9254.2028c.0487.4546.4626,1.234,1.6642,1.234,1.0468,0,1.5501-.6656,1.5501-1.3149,0-.5845-.3975-1.0634-1.1853-1.2257l-.5678-.1219c-.2192-.0404-.3654-.1623-.3654-.357,0-.2271.2271-.3978.5113-.3978.4546,0,.625.3005.6574.5357l.901-.2028c-.0484-.4302-.4301-1.1526-1.5664-1.1526-.8604,0-1.4936.5925-1.4936,1.3066,0,.5601.349,1.0227,1.1202,1.1933l.5274.1216c.3086.0651.4302.2111.4302.3897,0,.2111-.1703.3978-.5271.3978ZM52.4058,3.6368l-1.315,4.099-1.3146-4.099h-1.1526l-1.5908,5.7547h1.1443l1.0387-3.9769,1.2826,3.9769h1.1606l1.2745-3.9608,1.0551,3.9608h1.185l-1.5992-5.7547h-1.1686ZM56.3018,4.753c.3734,0,.6653-.3003.6653-.6573,0-.3734-.2919-.6737-.6653-.6737-.3651,0-.6656.3003-.6656.6737,0,.3571.3005.6573.6656.6573ZM55.7661,9.3961h1.0794v-3.9935h-1.0794v3.9935ZM60.6848,8.9333c0,.1867.0244.3814.0405.4626h1.031c-.0161-.1623-.0324-.4546-.0324-.7224V3.5196h-1.0635v2.2806c-.1135-.2108-.4382-.495-1.1282-.495-1.1282,0-1.9154.9171-1.9154,2.0861,0,1.2094.8116,2.1021,1.9478,2.1021.5358,0,.9416-.2435,1.1202-.5601ZM59.6945,8.5274c-.5681,0-.9902-.4221-.9902-1.1362s.4382-1.1202.9902-1.1202.9823.3978.9823,1.1119c0,.7224-.4305,1.1446-.9823,1.1446ZM62.8112,9.3958h1.0797V3.5195h-1.0797v5.8763ZM34.6816,13.1464c-1.1687,0-1.9966.8847-1.9966,2.0698,0,1.193.8279,2.0777,1.9966,2.0777s1.9966-.8847,1.9966-2.0777c0-1.1851-.8279-2.0698-1.9966-2.0698ZM34.6816,16.6122c-.6493,0-1.2174-.4869-1.2174-1.396,0-.9011.5681-1.3881,1.2174-1.3881s1.2174.487,1.2174,1.3881c0,.9091-.5681,1.396-1.2174,1.396ZM49.1783,17.1723h.7548v-3.904h-.7548v3.904ZM41.9625,13.1544c-.4952,0-.9986.1787-1.3069.7387-.211-.5033-.6819-.7387-1.1689-.7387-.4546,0-.9412.203-1.1847.6332v-.5194h-.7308v3.9041h.7549v-2.354c0-.5842.3653-.9902.9091-.9902.5845,0,.8279.3897.8279.893v2.4512h.7626v-2.362c0-.5598.3657-.9822.9014-.9822.5762,0,.8274.3817.8274.893v2.4512h.7551v-2.5326c0-1.0225-.6656-1.4853-1.3471-1.4853ZM49.5517,11.239c-.3003,0-.5435.2434-.5435.552,0,.3003.2432.5438.5435.5438.3083,0,.552-.2435.552-.5438,0-.3086-.2437-.552-.552-.552ZM81.659,8.2029c0-.5845-.3978-1.0634-1.1853-1.2257l-.5681-.1219c-.2191-.0404-.3651-.1623-.3651-.357,0-.2271.2271-.3978.5113-.3978.4546,0,.6249.3005.6574.5357l.9008-.2028c-.0483-.4302-.4299-1.1526-1.5662-1.1526-.8604,0-1.4936.5925-1.4936,1.3066,0,.5601.349,1.0227,1.1199,1.1933l.5277.1216c.3086.0651.4302.2111.4302.3897,0,.2111-.1704.3978-.5274.3978-.4709,0-.7061-.2922-.7305-.6088l-.9254.2028c.0487.4546.4626,1.234,1.6639,1.234,1.0471,0,1.5504-.6656,1.5504-1.3149ZM29.7382,16.5634c-1.0471,0-2.0454-.7712-2.0454-2.2725s.9983-2.2648,2.0454-2.2648c.9415,0,1.5747.4873,1.7938,1.3557l.7385-.2598c-.2922-1.1119-1.2174-1.826-2.5323-1.826-1.4285,0-2.857,1.0711-2.857,2.9949s1.3714,3.0032,2.857,3.0032c1.3229,0,2.2321-.7711,2.5404-1.8506l-.7059-.2598c-.2354.7872-.8525,1.3797-1.8345,1.3797ZM46.4918,13.1544c-.6493,0-1.1039.3169-1.2909.6656v-2.524h-.7545v5.8763h.7545v-.5681c.2438.4221.6903.6736,1.2665.6736,1.1606,0,1.8182-.9171,1.8182-2.0778,0-1.1365-.6088-2.0456-1.7938-2.0456ZM46.3538,16.5961c-.6739,0-1.1609-.552-1.1609-1.3961s.487-1.3719,1.1609-1.3719c.7061,0,1.1526.5276,1.1526,1.3719s-.4545,1.3961-1.1526,1.3961ZM63.4237,11.2959h-.7551v2.5243c-.13-.3166-.5031-.6576-1.1931-.6576-1.1041,0-1.8509.9415-1.8509,2.0454,0,1.1609.7064,2.0697,1.8509,2.0697.6086,0,1.0227-.3246,1.2094-.698v.0651c0,.2354.0244.4382.0405.5274h.7387c-.008-.0648-.0404-.349-.0404-.7224v-5.1539ZM61.5484,16.6043c-.7305,0-1.1446-.5928-1.1446-1.3963s.4548-1.3717,1.1526-1.3717c.6983,0,1.1205.552,1.1205,1.3556s-.4305,1.4124-1.1285,1.4124ZM70.3116,7.0988c0-.4623.2759-.8277.7467-.8277.5194,0,.7385.349.7385.7953v2.3296h1.0795v-2.5163c0-.8764-.4546-1.5828-1.4448-1.5828-.4302,0-.9091.187-1.1524.6008v-.4953h-1.0473v3.9935h1.0798v-2.2972ZM53.0988,13.1544c-.4546,0-.9172.1867-1.2014.6737v-.5599h-.7468v3.9041h.7631v-2.2565c0-.5925.3084-1.0714.9092-1.0714.6814,0,.9088.4385.9088.9822v2.3457h.7631v-2.4756c0-.8686-.4628-1.5423-1.396-1.5423ZM67.2433,8.9171c0,.1543.0161.3734.0405.4789h.9903c-.0244-.138-.0485-.4222-.0485-.6332v-1.9642c0-.8036-.4709-1.518-1.7371-1.518-1.0714,0-1.6476.69-1.7124,1.3149l.9576.203c.0324-.349.2922-.6493.7628-.6493.4549,0,.6737.2355.6737.5194,0,.1379-.0729.2515-.3003.2842l-.9819.146c-.6657.0975-1.1931.4953-1.1931,1.2094,0,.6249.5191,1.2014,1.3715,1.2014.5927,0,.9742-.2759,1.1769-.5925ZM65.7741,8.2434c0-.3086.2194-.4626.4953-.5033l.9008-.138v.1787c0,.7061-.4219.9252-.8764.9252-.3491,0-.5197-.2271-.5197-.4626ZM57.1818,13.1465c-.9823,0-1.867.836-1.867,2.0617,0,1.3229.9172,2.0858,1.9642,2.0858.9091,0,1.5343-.5438,1.7532-1.2338l-.6574-.2271c-.1462.4382-.4628.7872-1.0958.7872-.6573,0-1.1606-.4869-1.1767-1.185h2.9379c.0083-.0487.0163-.146.0163-.2435,0-1.2177-.6736-2.0453-1.8747-2.0453ZM56.1264,14.8184c.0324-.5033.4222-.9983,1.0634-.9983.6898,0,1.0551.4382,1.0712.9983h-2.1346ZM76.6588,8.9333c0,.1867.0244.3814.0404.4626h1.031c-.016-.1623-.0324-.4546-.0324-.7224V3.5196h-1.0634v2.2806c-.1135-.2108-.4382-.495-1.1282-.495-1.1282,0-1.9155.9171-1.9155,2.0861,0,1.2094.8117,2.1021,1.9479,2.1021.5357,0,.9415-.2435,1.1202-.5601ZM75.6685,8.5274c-.5678,0-.99-.4221-.99-1.1362s.4382-1.1202.99-1.1202.9823.3978.9823,1.1119c0,.7224-.4305,1.1446-.9823,1.1446ZM67.9204,11.4177l-2.2889,5.7547h.8521l.6088-1.6071h2.5487l.6249,1.6071h.8604l-2.2889-5.7547h-.9171ZM67.3766,14.8265l.982-2.5811.9983,2.5811h-1.9803ZM80.8345,13.1544c-.4463,0-.9008.1543-1.185.5681v-2.4265h-.7632v5.8763h.7632v-2.2972c.0163-.5761.3246-1.0307.9091-1.0307.6814,0,.9088.4385.9088.9822v2.3457h.7632v-2.4756c0-.8686-.4629-1.5423-1.3961-1.5423ZM85.0389,13.1464c-1.1687,0-1.9966.8847-1.9966,2.0698,0,1.193.8279,2.0777,1.9966,2.0777s1.9966-.8847,1.9966-2.0777c0-1.1851-.8277-2.0698-1.9966-2.0698ZM85.0389,16.6122c-.6493,0-1.2174-.4869-1.2174-1.396,0-.9011.5681-1.3881,1.2174-1.3881s1.2177.487,1.2177,1.3881c0,.9091-.5682,1.396-1.2177,1.396ZM77.1087,12.0344h-.6977v.633c0,.341-.1787.6008-.6008.6008h-.2111v.6897h.7468v2.1429c0,.7061.4221,1.1121,1.0875,1.1121.2598,0,.4546-.0487.5194-.0731v-.6493c-.0648.0164-.2025.0324-.3003.0324-.3975,0-.5438-.1784-.5438-.5357v-2.0293h.8441v-.6897h-.8441v-1.2338ZM88.6753,13.95v-.6819h-.7468v3.9043h.7631v-1.9562c0-.8604.4299-1.2013,1.0715-1.2013.1052,0,.2191.008.3327.0243v-.8116c-.0405-.008-.146-.0244-.2516-.0244-.3977,0-.8847.1463-1.1689.7468ZM91.1996,11.239c-.3,0-.5435.2434-.5435.552,0,.3003.2435.5438.5435.5438.3083,0,.5521-.2435.5521-.5438,0-.3086-.2438-.552-.5521-.552ZM90.8262,17.1723h.7549v-3.904h-.7549v3.904ZM93.8214,12.0344h-.6978v.633c0,.341-.1786.6008-.601.6008h-.2111v.6897h.7468v2.1429c0,.7061.4221,1.1121,1.0878,1.1121.2598,0,.4545-.0487.5193-.0731v-.6493c-.0648.0164-.2027.0324-.3002.0324-.3978,0-.5438-.1784-.5438-.5357v-2.0293h.844v-.6897h-.844v-1.2338ZM74.8683,13.2681h-.7629v2.354c0,.5925-.3083.9983-.9254.9983-.641,0-.8842-.4709-.8842-1.0064v-2.3459h-.7632v2.4595c0,.8847.5518,1.5664,1.461,1.5664.4542,0,.9415-.1866,1.1525-.5925,0,.1624.0161.3815.0325.4707h.7304c-.0161-.138-.0407-.4139-.0407-.7224v-3.1817ZM98.3343,13.2683l-1.1689,2.6946-1.2177-2.6946h-.8764l1.6803,3.4738-.974,2.0617h.836l2.5404-5.5355h-.8197Z" fill="#54565b" stroke-width="0"/><path d="M7.3382,0c-1.1958-.0006-2.301.6367-2.8995,1.672l-.0047.0081v4.5953l6.8869-3.9711L7.3325.0044M22.1935,8.5768l-.0027-.0047-3.9829-2.2966v7.9498l3.9829-2.2966.0027-.0047c.5978-1.0356.5978-2.3115,0-3.3471ZM7.3325,20.4962,4.4326,18.8286c.5985,1.0353,1.7037,1.6726,2.8995,1.672l3.9858-2.3025-6.8838-3.9693v4.5982" fill="#f9be91" stroke-width="0"/><path d="M18.2032,1.672C17.6048.6367,16.4995-.0006,15.3037,0l-7.9712.0044,14.86,8.5686-3.9893-6.901ZM15.3037,20.5006c1.1958.0006,2.3011-.6367,2.8995-1.672l3.9893-6.901-14.86,8.5686,7.9712.0044ZM.4484,11.9238l3.9856,6.9032V1.6736L.4484,8.5768c-.5979,1.0356-.5979,2.3114,0,3.347Z" fill="#ee7622" stroke-width="0"/></svg>