<?xml version="1.0" encoding="UTF-8"?><!DOCTYPE svg PUBLIC "-//W3C//DTD SVG 1.1//EN" "http://www.w3.org/Graphics/SVG/1.1/DTD/svg11.dtd"><svg xmlns="http://www.w3.org/2000/svg" xmlns:xlink="http://www.w3.org/1999/xlink"><defs><path id="a" d="M0 .015h47.985v47.98H0z"/></defs><symbol id="ds-portfolio-culture-and-digital" viewBox="0 0 50 50"><path d="M27.5 34.956v-2.5H4.993a2.503 2.503 0 01-2.493-2.5h25v-2.5h-20v-20h30v5H40v-5a2.5 2.5 0 00-2.5-2.5h-30a2.5 2.5 0 00-2.5 2.5v20H1.25c-.69 0-1.25.56-1.25 1.25v1.25a5.02 5.02 0 004.993 5H27.5zm20 10a2.5 2.5 0 002.5-2.5v-25a2.5 2.5 0 00-2.5-2.5h-15a2.5 2.5 0 00-2.5 2.5v25a2.5 2.5 0 002.5 2.5h15zm0-2.5h-15v-25h15v25z" fill-rule="evenodd"/></symbol><symbol id="ds-portfolio-economy" viewBox="0 0 50 50"><path d="M17.187 46.79c9.493 0 17.188-3.497 17.188-7.813v-1.602c8.76-.36 15.625-3.7 15.625-7.773v-18.75C50 7.24 43.935 3.04 32.812 3.04c-4.746 0-9.042.879-12.158 2.285-.088.039-5.029 2.05-5.029 5.527v1.631C7.432 12.825 0 15.872 0 20.227v18.75c0 4.316 7.695 7.813 17.187 7.813zm15.625-31.25c-.712 0-1.367-.05-2.04-.088-3.604-2.12-8.301-2.754-11.29-2.93-.615-.518-.986-1.074-.986-1.67 0-2.588 6.416-4.687 14.326-4.687s14.326 2.1 14.326 4.687c0 2.588-6.425 4.688-14.336 4.688zm1.563 9.296v-4.609c0-.547-.166-1.074-.4-1.592 5.332-.166 10-1.416 12.9-3.3v4.892c0 1.28-4.404 4.238-12.5 4.61zm-17.188.079c-7.91 0-14.326-2.1-14.326-4.688 0-2.588 6.416-4.687 14.326-4.687s14.327 2.1 14.327 4.687c0 2.588-6.416 4.688-14.327 4.688zm0 9.375c-9.13 0-14.062-3.33-14.062-4.688V24.71c3.105 2.011 8.242 3.33 14.062 3.33 5.82 0 10.957-1.319 14.063-3.33v4.892c0 1.358-4.932 4.688-14.063 4.688zm17.188-.069v-6.26c5.156-.214 9.678-1.425 12.5-3.251v4.892c0 1.28-4.395 4.258-12.5 4.62zm-17.188 9.444c-9.13 0-14.062-3.33-14.062-4.688v-4.892c3.105 2.011 8.242 3.33 14.062 3.33 5.82 0 10.957-1.319 14.063-3.33v4.892c0 1.358-4.932 4.688-14.063 4.688z" fill-rule="evenodd"/></symbol><symbol id="ds-portfolio-environment" viewBox="0 0 50 50"><path d="M30.653 50.074a1.563 1.563 0 001.398-2.261l-2.364-4.727v-5.513h10.938c5.17 0 9.375-4.205 9.375-9.375a9.283 9.283 0 00-5.084-8.302 9.037 9.037 0 00.397-2.635c0-5.17-4.206-9.375-9.376-9.375-.561 0-1.117.052-1.668.152C33.588 3.535 29.69.073 25 .073s-8.588 3.462-9.269 7.965a11.098 11.098 0 00-1.668-.152c-5.17 0-9.376 4.205-9.376 9.375 0 .888.135 1.77.397 2.635A9.28 9.28 0 000 28.198c0 5.17 4.205 9.375 9.375 9.375h10.938v5.513l-2.364 4.727a1.562 1.562 0 001.398 2.261h11.306zm9.972-15.626H9.375a6.257 6.257 0 01-6.25-6.25c0-2.746 1.785-5.135 4.44-5.945l1.774-.54-.833-1.657c-.458-.915-.694-1.857-.694-2.795a6.257 6.257 0 016.25-6.25c1.4 0 1.949.287 4.997 1.658-.213-2.322-.232-2.557-.264-2.841l-.003-.023-.001-.012-.003-.023-.038-.322c0-3.447 2.805-6.25 6.25-6.25s6.25 2.803 6.226 6.487l-.285 2.984c2.758-1.24 3.444-1.658 4.997-1.658a6.257 6.257 0 016.25 6.25c0 .938-.236 1.88-.693 2.795l-.833 1.657 1.774.54c2.654.81 4.439 3.2 4.439 5.945a6.257 6.257 0 01-6.25 6.25zm-12.5 12.5h-6.25l1.563-3.125v-6.25h3.125v6.25l1.562 3.125z" fill-rule="evenodd"/></symbol><symbol id="ds-portfolio-housing-and-land" viewBox="0 0 50 50"><path d="M46.875 50.073V48.12c0-.647-.525-1.172-1.172-1.172H43.75V2.418A2.345 2.345 0 0041.406.073H8.594A2.344 2.344 0 006.25 2.417v44.531H4.297c-.647 0-1.172.525-1.172 1.172v1.953h43.75zm-25-3.125h-12.5V3.198h31.25v43.75h-12.5v-8.3c0-.648-.525-1.172-1.172-1.172h-3.906c-.647 0-1.172.524-1.172 1.172v8.3zm-1.172-31.347c.647 0 1.172-.525 1.172-1.172v-3.906c0-.648-.525-1.172-1.172-1.172h-3.906c-.647 0-1.172.524-1.172 1.172v3.906c0 .647.525 1.172 1.172 1.172h3.906zm12.5 0c.647 0 1.172-.525 1.172-1.172v-3.906c0-.648-.525-1.172-1.172-1.172h-3.906c-.647 0-1.172.524-1.172 1.172v3.906c0 .647.525 1.172 1.172 1.172h3.906zm-12.5 9.375c.647 0 1.172-.525 1.172-1.172v-3.906c0-.648-.525-1.172-1.172-1.172h-3.906c-.647 0-1.172.524-1.172 1.172v3.906c0 .647.525 1.172 1.172 1.172h3.906zm12.5 0c.647 0 1.172-.525 1.172-1.172v-3.906c0-.648-.525-1.172-1.172-1.172h-3.906c-.647 0-1.172.524-1.172 1.172v3.906c0 .647.525 1.172 1.172 1.172h3.906zm-12.5 9.375c.647 0 1.172-.525 1.172-1.172v-3.906c0-.648-.525-1.172-1.172-1.172h-3.906c-.647 0-1.172.524-1.172 1.172v3.906c0 .647.525 1.172 1.172 1.172h3.906zm12.5 0c.647 0 1.172-.525 1.172-1.172v-3.906c0-.648-.525-1.172-1.172-1.172h-3.906c-.647 0-1.172.524-1.172 1.172v3.906c0 .647.525 1.172 1.172 1.172h3.906z" fill-rule="evenodd"/></symbol><symbol id="ds-portfolio-inclusive-communities" viewBox="0 0 50 50"><path d="M25 50.083c13.81 0 25-11.19 25-25 0-13.811-11.19-25-25-25s-25 11.189-25 25c0 13.81 11.19 25 25 25zm0-3.226c-12.006 0-21.774-9.768-21.774-21.774C3.226 13.076 12.994 3.308 25 3.308s21.774 9.768 21.774 21.775c0 12.006-9.768 21.774-21.774 21.774zM16.935 23.47a3.222 3.222 0 003.226-3.226 3.222 3.222 0 00-3.226-3.226 3.222 3.222 0 00-3.225 3.226 3.222 3.222 0 003.225 3.226zm16.13 0a3.222 3.222 0 003.225-3.226 3.222 3.222 0 00-3.225-3.226 3.222 3.222 0 00-3.226 3.226 3.222 3.222 0 003.226 3.226zM25 39.599c4.476 0 8.7-1.976 11.573-5.424a1.604 1.604 0 00-.202-2.268 1.626 1.626 0 00-2.278.212c-2.258 2.701-5.575 4.254-9.093 4.254s-6.835-1.553-9.093-4.254a1.604 1.604 0 00-2.268-.202 1.604 1.604 0 00-.202 2.268A15.022 15.022 0 0025 39.6z" fill-rule="evenodd"/></symbol><symbol id="ds-portfolio-skills" viewBox="0 0 50 50"><path d="M45.313 46.79A4.69 4.69 0 0050 42.102v-25a4.687 4.687 0 00-4.688-4.687H34.376V5.383a2.343 2.343 0 00-2.344-2.343H17.97a2.343 2.343 0 00-2.344 2.343v7.032H4.687A4.688 4.688 0 000 17.102v25a4.688 4.688 0 004.688 4.688h40.624zM31.25 12.415h-12.5v-6.25h12.5v6.25zm15.625 12.5H3.125v-7.813c0-.861.701-1.562 1.563-1.562h40.624c.862 0 1.563.7 1.563 1.562v7.813zm-1.563 18.75H4.688a1.565 1.565 0 01-1.563-1.563V28.04H18.75v3.906a2.345 2.345 0 002.344 2.344h7.812a2.345 2.345 0 002.344-2.344V28.04h15.625v14.062c0 .862-.701 1.563-1.563 1.563zm-17.187-12.5h-6.25V28.04h6.25v3.125z" fill-rule="evenodd"/></symbol><symbol id="ds-portfolio-transport" viewBox="0 0 50 50"><path d="M48.006 5.078c.99 0 1.595.753 1.797 1.197.035.077.06.159.074.242.094.558.92 5.485.978 6.644.011.218.02.456.027.698l.01.364c.017.727.02 1.427.02 1.704l.001 2.014c0 .54-.437.977-.977.977h-3.813a2.204 2.204 0 01-.804.987c2.076 3.39 2.287 8.292 2.3 9.855v.282l-.003.17c.01.38-.13.746-.398 1.033-.346.37-1.082.86-3.475.86h-6.39c.6.832 1.197 1.865 1.767 3.146 1.132 2.542 1.796 5.308 1.739 6.022-.11 1.354-1.162 2.375-2.45 2.375h-1.932a2.294 2.294 0 01-2.07 1.315c-.914 0-1.703-.54-2.07-1.315h-.781a2.294 2.294 0 01-2.07 1.315c-.914 0-1.703-.54-2.07-1.315H13.769a2.293 2.293 0 01-2.07 1.315c-.914 0-1.703-.54-2.07-1.315h-.78a2.295 2.295 0 01-2.07 1.315c-.915 0-1.703-.54-2.071-1.315H3.315c-1.408 0-2.51-1.078-2.51-2.453V31.2c0-1.353 1.126-2.453 2.51-2.453l.874.003c.13-2.61.762-7.93 3.701-10.617.241-.289.967-1.042 1.96-1.042l4.36-.017 2.407-2.53-3.115-3.324h-2.29a.819.819 0 11.001-1.637h5.791a.82.82 0 110 1.637h-1.258l2.594 2.767a.818.818 0 01-.004 1.124l-1.857 1.953 3.283-.013V6.055c0-.54.437-.977.977-.977zm-12.722 38.57H33.53a1.306 1.306 0 001.755 0zm-4.92 0h-1.756a1.306 1.306 0 001.755 0zm-17.787 0H10.82a1.306 1.306 0 001.756 0zm-4.921 0H5.9a1.306 1.306 0 001.756 0zM3.31 30.7c-.325 0-.553.263-.553.5v9.995c0 .343.288.5.557.5h35.094c.305 0 .471-.284.5-.556a5.02 5.02 0 00-.12-.73H6.448a.35.35 0 110-.701h32.168a24.731 24.731 0 00-.507-1.66h-9.19a.488.488 0 01-.488-.488v-3.918c0-.27.22-.489.489-.489h6.778c-.825-1.134-1.803-2.024-2.927-2.34zm13.576 2.454c.27 0 .488.218.488.488v3.918c0 .27-.219.488-.488.488H8.14a.487.487 0 01-.488-.488v-3.918c0-.27.219-.488.488-.488zm10.448 0c.27 0 .489.218.489.488v3.918c0 .27-.219.488-.489.488H18.59a.487.487 0 01-.488-.488v-3.918c0-.27.219-.488.488-.488zm-10.937.976H8.63v2.942h7.768V34.13zm10.45 0h-7.77v2.942h7.77V34.13zm9.491 0h-6.93v2.942h8.342a19.99 19.99 0 00-1.412-2.942zm-7.303-15.138h-.103v9.853l3.971.016c.078 0 .155.01.23.028.663.164 1.448.5 2.284 1.153V21.02c0-.27.218-.488.488-.488h4.202c.27 0 .489.218.489.488v9.131h3.146c1.134 0 1.684-.122 1.921-.202 0-.428-.019-1.386-.141-2.574-1.005-.053-1.787-.334-2.37-.855-1.12-1.003-1.166-2.635-1.2-3.827l-.004-.182c-.088-1.489.033-2.335.777-2.783a6.303 6.303 0 00-.166-.162s-.522-.522-.636-.522h-.12l-.187-.002-12.581-.051zm10.584 2.517h-3.226v8.643h3.226V21.51zm-12.64-2.347h-2.183v9.668l2.182.008v-9.676zm-4.136-.17l-12.99.053c-.1.006-.347.192-.484.363a1.09 1.09 0 01-.118.127 4.12 4.12 0 00-.204.193c.745.449.867 1.298.78 2.798l-.006.169c-.033 1.191-.079 2.823-1.2 3.826-.583.522-1.366.803-2.372.855-.05.466-.084.928-.107 1.382l5.036.02V21.02c0-.27.22-.488.489-.488h4.202c.27 0 .488.218.488.488v7.776l6.486.025v-9.83zm-7.462 2.517h-3.226v7.272l3.226.012V21.51zm19.072-.976c.27 0 .489.218.489.488v5.683c0 .27-.219.488-.489.488h-4.34a.489.489 0 01-.489-.488V21.02c0-.27.22-.488.489-.488zm-12.792 0c.27 0 .489.218.489.488v5.683c0 .27-.219.488-.489.488h-4.34a.489.489 0 01-.489-.488V21.02c0-.27.219-.488.489-.488zm21.707-.047c-.462.207-.522.677-.445 1.983l.006.198c.03 1.07.067 2.403.875 3.127.373.334.91.529 1.596.59-.28-1.957-.856-4.266-2.032-5.898zm-34.958.002c-1.072 1.506-1.714 3.688-2.037 5.897.686-.062 1.224-.257 1.597-.591.808-.724.845-2.056.875-3.127l.006-.185c.076-1.31.017-1.785-.44-1.994zm25.555 1.021h-3.364v4.706h3.364V21.51zm-12.792 0H17.81v4.706h3.364V21.51zm22.93-4.622c-.423 0-.794.219-1.01.548.316.206.563.471.792.698.32.293.612.619.88.967a1.205 1.205 0 00-.663-2.213zm-18.219-.002c-.53 0-.98.344-1.142.821.033.098.054.2.054.305v.45h2.182v-.42c0-.113.016-.225.05-.332a1.208 1.208 0 00-1.144-.824zM47.978 7.03H21.715v10.012l2.101-.008c.052 0 .101.008.15.016a2.183 2.183 0 013.837-.001 1.03 1.03 0 01.157-.015l13.97.056c.08 0 .156.006.23.013a2.184 2.184 0 011.943-1.193c.79 0 1.482.424 1.865 1.055l.025-.001h2.967v-1.067l-.001-.17a83.782 83.782 0 00-.02-1.414 4.309 4.309 0 01-2.062-.886 2.503 2.503 0 01-.928-1.675l-.281-2.94a.489.489 0 01.485-.543h2.054c-.046-.277-.187-1.017-.223-1.232l-.006-.006zm-4.235 1.336c.27 0 .488.219.488.488v4.464c0 .27-.219.489-.488.489h-7.27a.488.488 0 01-.487-.489V8.855c0-.27.218-.488.488-.488zm-9.12 0c.27 0 .489.219.489.488v4.464a.49.49 0 01-.489.489h-9.337a.488.488 0 01-.488-.489V8.855c0-.27.219-.488.488-.488zm13.742.879h-1.667l.222 2.398c.045.404.245.765.563 1.016.313.248.794.533 1.424.656l-.003-.057c-.03-.615-.258-2.266-.539-4.013zm-5.11.098h-6.293v3.487h6.292V9.344zm-9.12 0h-8.36v3.487h8.36V9.344z" fill-rule="evenodd"/></symbol><symbol id="ds-portfolio-wellbeing" viewBox="0 0 50 50"><path d="M24.99 46.79c.801 0 1.602-.312 2.208-.947L46.094 26.33c5.508-5.664 5.186-15.059-.947-20.293-5.322-4.532-13.282-3.78-18.223 1.318L25 9.348l-1.924-1.982C19.092 3.245 11.055.764 4.854 6.038c-6.133 5.234-6.456 14.629-.967 20.293l18.896 19.512a3.075 3.075 0 002.207.947zm.05-3.115L6.132 24.163c-3.75-3.867-4.531-11.24.752-15.742 5.351-4.57 11.64-1.26 13.945 1.123L25 13.85l4.17-4.306C31.436 7.2 37.784 3.879 43.116 8.42c5.273 4.492 4.502 11.865.752 15.742L25.039 43.675z" fill-rule="evenodd"/></symbol><symbol id="ds-social-email" viewBox="0 0 256 256"><path d="M176 124v-8c0-2.21-1.79-4-4-4H84c-2.21 0-4 1.79-4 4v8c0 2.21 1.79 4 4 4h88c2.21 0 4-1.79 4-4zM84 96h88c2.21 0 4-1.79 4-4v-8c0-2.21-1.79-4-4-4H84c-2.21 0-4 1.79-4 4v8c0 2.21 1.79 4 4 4zm163.295-13.74L224 63.495V48c0-8.835-7.165-16-16-16h-23.235l-5.1-4.07C168.615 19.095 149.72 0 128 0c-20.334 0-38.108 16.706-49.591 26.234L71.23 32H48c-8.835 0-16 7.165-16 16v15.49L8.76 82.205C3.926 86.18 0 94.482 0 100.74V232c0 13.255 10.745 24 24 24h208c13.255 0 24-10.745 24-24V100.755c0-7.155-3.19-13.94-8.705-18.495zM128.523 16c10.853 0 22.254 8.36 31.477 16H97.067c9.237-7.635 20.649-16 31.456-16zM48 48h160v86.674l-43.295 34.67c-8.425 6.715-25.095 22.84-36.705 22.654-11.605.19-28.28-15.94-36.705-22.66L48 134.668V48zm-32 52.791c0-1.897.682-3.703 1.904-5.121l1.016-.987c.62-.504 5.81-4.635 13.08-10.416V121.6l-16-12.74v-8.069zm224 131.181c0 4.426-3.59 8.028-8 8.028H24c-4.41 0-8-3.602-8-8.028v-102.9l65.34 52.592c10.245 8.208 28.37 26.355 46.66 26.22 18.225.13 36.135-17.791 46.655-26.22l19.17-15.356A24333.896 24333.896 0 00240 129.067v102.905zm0-131.174v8.056L224 121.6V84.267l13.1 10.438a7.838 7.838 0 012.9 6.093z" fill-rule="nonzero"/></symbol><symbol id="ds-social-facebook-hex" viewBox="0 0 52.3 46.8"><path fill-rule="evenodd" clip-rule="evenodd" d="M50.8 24.9l-7.2 18.9c-.4 1-1.3 1.6-2.4 1.6h-30c-1.1-.1-2-.7-2.4-1.6L1.6 24.9c-.3-1-.3-2.1 0-3.1L8.8 2.9c.4-1 1.3-1.6 2.4-1.6h29.9c1 0 2 .7 2.4 1.7l7.2 18.9c.4.9.4 2 .1 3zm1.2-3.5L44.7 2.5C44.1 1 42.7 0 41.1 0H11.2c-1.6 0-3 1-3.6 2.5l-7.2 19c-.4 1.3-.4 2.6 0 3.9l7.2 18.9c.6 1.4 2 2.4 3.6 2.5h29.9c1.6 0 3-1 3.6-2.5l7.3-19c.4-1.3.4-2.6 0-3.9l-.6.2.6-.2z"/><path d="M23.6 35.2H28V24.5h3.6l.6-4.2H28v-2.7c0-1.2.3-2 2.1-2h2.2V12c-.4-.1-1.7-.2-3.3-.2-3.2 0-5.4 2-5.4 5.5v3.1H20v4.2h3.6v10.6z"/></symbol><symbol id="ds-social-facebook" viewBox="0 0 256 256"><path d="M100.752 256.35h46.881V139.531h38.902l5.985-45.392h-44.887V65.1c0-13.35 3.658-22.362 22.277-22.362h23.94V2.353C189.86 1.685 175.563.35 158.938.35c-34.58 0-58.186 21.361-58.186 60.078v33.71H61.85v45.393h38.902V256.35z" fill-rule="nonzero"/></symbol><symbol id="ds-social-instagram-hex" viewBox="0 0 51 50"><path fill-rule="evenodd" clip-rule="evenodd" d="M50.1 26.4l-7.2 18.9c-.4 1-1.3 1.6-2.4 1.6H10.6c-1.1-.1-2-.7-2.4-1.6L.9 26.4c-.3-1-.3-2.1 0-3.1L8.1 4.4c.4-1 1.3-1.6 2.4-1.6h29.9c1 0 2 .7 2.4 1.7L50 23.4c.4.9.4 2 .1 3zm1.2-3.5L44.1 4c-.6-1.5-2-2.4-3.6-2.4h-30c-1.6 0-3 1-3.6 2.5l-7.2 19c-.4 1.3-.4 2.6 0 3.9l7.2 18.9c.6 1.4 2 2.4 3.6 2.5h29.9c1.6 0 3-1 3.6-2.5l7.3-19c.5-1.4.5-2.7 0-4l-.6.2c0 .1.6-.2.6-.2z"/><path d="M30.4 36.6c1.9-.1 3.6-.5 5-1.9 1.4-1.3 1.8-2.9 1.9-4.8v-.2c.1-1.9.1-7.7 0-9.7-.1-1.9-.5-3.5-1.9-4.9-1.4-1.3-3-1.8-4.8-1.9h-.2c-2-.1-7.9-.1-9.9 0-1.9.1-3.6.5-5 1.9s-1.8 3-1.9 4.9c-.1 1.9-.1 7.7 0 9.7.1 1.9.5 3.5 1.9 4.9 1.4 1.4 3.1 1.8 5 1.9 2 .2 8 .2 9.9.1zm-4.9-2c-1.7 0-5.5.1-7-.5-1-.4-1.8-1.2-2.3-2.2-.6-1.5-.5-5.2-.5-6.9 0-1.7-.1-5.4.5-6.9.4-1 1.2-1.8 2.3-2.2 1.6-.6 5.3-.5 7-.5 1.7 0 5.5-.1 7 .5 1 .4 1.8 1.2 2.3 2.2.6 1.5.5 5.2.5 6.9s.1 5.4-.5 6.9c-.4 1-1.2 1.8-2.3 2.2-1.5.6-5.3.5-7 .5zm6.4-14.5c.8 0 1.4-.6 1.4-1.4 0-.8-.6-1.4-1.4-1.4-.8 0-1.4.6-1.4 1.4-.1.8.6 1.4 1.4 1.4zM25.5 31c3.4 0 6.1-2.7 6.1-6s-2.7-6-6.1-6-6.1 2.7-6.1 6 2.8 6 6.1 6zm0-2.2c-2.2 0-4-1.7-4-3.9s1.8-3.9 4-3.9 4 1.7 4 3.9-1.8 3.9-4 3.9z"/></symbol><symbol id="ds-social-instagram" viewBox="0 0 48 49"><g fill-rule="evenodd"><g><mask id="b"><use xlink:href="#a"/></mask><path d="M23.992.015c-6.516 0-7.333.028-9.892.145-2.553.116-4.297.522-5.824 1.115-1.577.613-2.915 1.433-4.25 2.767-1.333 1.334-2.153 2.672-2.766 4.25-.594 1.526-1 3.27-1.116 5.824C.028 16.675 0 17.492 0 24.008S.028 31.34.144 33.9c.117 2.553.522 4.297 1.116 5.824.613 1.577 1.433 2.915 2.767 4.25 1.334 1.333 2.672 2.153 4.25 2.766 1.526.594 3.27 1 5.823 1.116 2.56.116 3.376.144 9.892.144s7.333-.028 9.892-.144c2.554-.117 4.298-.522 5.824-1.116 1.578-.613 2.916-1.433 4.25-2.767 1.334-1.334 2.154-2.672 2.767-4.25.593-1.526.999-3.27 1.115-5.823.117-2.56.145-3.376.145-9.892s-.028-7.333-.145-9.892c-.116-2.554-.522-4.298-1.115-5.824-.613-1.578-1.433-2.916-2.767-4.25-1.334-1.334-2.672-2.154-4.25-2.767C38.182.682 36.438.276 33.884.16 31.325.043 30.508.015 23.992.015zm0 4.323c6.407 0 7.166.025 9.695.14 2.34.107 3.61.498 4.455.826 1.12.435 1.92.955 2.76 1.795.839.84 1.359 1.639 1.794 2.759.328.845.72 2.115.826 4.455.115 2.53.14 3.288.14 9.695 0 6.406-.025 7.165-.14 9.695-.107 2.339-.498 3.61-.826 4.455-.435 1.12-.955 1.919-1.795 2.758-.84.84-1.639 1.36-2.759 1.795-.845.329-2.115.72-4.455.826-2.53.116-3.288.14-9.695.14-6.406 0-7.165-.024-9.695-.14-2.339-.107-3.61-.497-4.455-.826-1.12-.435-1.919-.955-2.758-1.795-.84-.84-1.36-1.638-1.795-2.758-.329-.846-.72-2.116-.826-4.455-.116-2.53-.14-3.29-.14-9.695 0-6.407.024-7.166.14-9.695.107-2.34.497-3.61.826-4.455.435-1.12.955-1.92 1.795-2.76.84-.839 1.638-1.359 2.758-1.794.846-.328 2.116-.72 4.455-.826 2.53-.115 3.29-.14 9.695-.14z" mask="url(#b)"/></g><path d="M24 32.128a8.128 8.128 0 110-16.256 8.128 8.128 0 010 16.256zm0-20.65c-6.916 0-12.522 5.606-12.522 12.522S17.084 36.522 24 36.522 36.522 30.916 36.522 24 30.916 11.478 24 11.478zM39.652 11.478a3.13 3.13 0 11-6.26 0 3.13 3.13 0 016.26 0"/></g></symbol><symbol id="ds-social-linkedin-hex" viewBox="0 0 51 50"><path fill-rule="evenodd" clip-rule="evenodd" d="M50.1 26.4l-7.2 18.9c-.4 1-1.3 1.6-2.4 1.6H10.6c-1.1-.1-2-.7-2.4-1.6L.9 26.4c-.3-1-.3-2.1 0-3.1L8.1 4.4c.4-1 1.3-1.6 2.4-1.6h29.9c1 0 2 .7 2.4 1.7L50 23.4c.4.9.4 2 .1 3zm1.2-3.5L44.1 4c-.6-1.5-2-2.4-3.6-2.4h-30c-1.6 0-3 1-3.6 2.5l-7.2 19c-.4 1.3-.4 2.6 0 3.9l7.2 18.9c.6 1.4 2 2.4 3.6 2.5h29.9c1.6 0 3-1 3.6-2.5l7.3-19c.5-1.4.5-2.7 0-4l-.6.2c0 .1.6-.2.6-.2z"/><path d="M35.7 13.3H15.2c-.9 0-1.7.8-1.7 1.7v20c0 .9.8 1.7 1.7 1.7h20.5c.9 0 1.7-.8 1.7-1.7V15c.1-1-.7-1.7-1.7-1.7zM20.8 33.4h-3.5V22.2h3.5v11.2zM19 20.7c-1.1 0-2.1-.9-2.1-2s.9-2 2.1-2c1.1 0 2.1.9 2.1 2s-1 2-2.1 2zm15.1 12.7h-3.5v-5.7c0-1.2-.2-2.7-1.8-2.7-1.8 0-2.1 1.3-2.1 2.8v5.6H23V22.2h3.4v1.5c.5-.9 1.6-1.8 3.4-1.8 3.5 0 4.2 2.2 4.3 5.2v6.3z"/></symbol><symbol id="ds-social-linkedin" viewBox="0 0 256 256"><path d="M237.714 0H18.23C8.17 0 0 8.286 0 18.457v219.086C0 247.714 8.171 256 18.229 256h219.485c10.057 0 18.286-8.286 18.286-18.457V18.457C256 8.286 247.771 0 237.714 0zM77.43 219.429h-38V97.257h38V219.43zM58.4 80.57c-12.171 0-22-9.885-22-22 0-12.114 9.829-22 22-22 12.115 0 22 9.886 22 22 0 12.172-9.829 22-22 22zm161.2 138.86h-37.943l-.01-62.52c-.128-13.591-1.663-29.31-19.704-29.31-19.277 0-22.638 14.668-22.794 30.178l-.006 61.652H101.2V97.257h36.4v16.686h.514c5.086-9.6 17.486-19.714 35.943-19.714 37.76 0 45.296 24.477 45.537 56.589l.006 68.61z" fill-rule="nonzero"/></symbol><symbol id="ds-social-twitter-hex" viewBox="0 0 51 50"><path fill-rule="evenodd" clip-rule="evenodd" d="M50.1 26.4l-7.2 18.9c-.4 1-1.3 1.6-2.4 1.6H10.6c-1.1-.1-2-.7-2.4-1.6L.9 26.4c-.3-1-.3-2.1 0-3.1L8.1 4.4c.4-1 1.3-1.6 2.4-1.6h29.9c1 0 2 .7 2.4 1.7L50 23.4c.4.9.4 2 .1 3zm1.2-3.5L44.1 4c-.6-1.5-2-2.4-3.6-2.4h-30c-1.6 0-3 1-3.6 2.5l-7.2 19c-.4 1.3-.4 2.6 0 3.9l7.2 18.9c.6 1.4 2 2.4 3.6 2.5h29.9c1.6 0 3-1 3.6-2.5l7.3-19c.5-1.4.5-2.7 0-4l-.6.2c0 .1.6-.2.6-.2z"/><path d="M21.1 35.1c9 0 14-7.3 14-13.7v-.6c1-.7 1.8-1.5 2.4-2.5-.9.4-1.8.7-2.8.7 1-.6 1.8-1.6 2.2-2.6-1 .6-2 .9-3.1 1.2-1.8-1.9-5-2-6.9-.2-1.3 1.2-1.8 2.9-1.4 4.6-3.9-.2-7.6-2-10.1-5-1.3 2.2-.6 5 1.5 6.4-.8 0-1.6-.2-2.2-.6v.1c0 2.3 1.7 4.2 3.9 4.7-.7.2-1.5.2-2.2.1.6 2 2.5 3.3 4.6 3.3-2 1.3-4.1 2-6.3 2-.4 0-.8 0-1.2-.1 2.3 1.4 4.9 2.2 7.6 2.2"/></symbol><symbol id="ds-social-twitter" viewBox="0 0 256 256"><path d="M80.68 238c96.341 0 149.448-79.924 149.448-149.306 0-2.38 0-4.42-.34-6.802C240 74.41 249.19 65.227 256 54.684c-9.532 4.081-19.745 7.142-30.298 8.163 10.894-6.462 19.404-17.006 23.15-28.91-10.214 6.123-21.448 10.204-33.363 12.585-19.744-21.087-53.106-22.107-74.212-2.381-13.617 12.584-19.405 31.97-14.98 50.335-42.211-2.04-81.7-22.106-108.253-54.756-13.958 23.807-6.809 54.756 16.34 70.06-8.17-.34-16.68-2.38-23.83-6.461v.68c0 24.828 17.702 46.254 41.873 51.356-7.83 2.04-16 2.38-23.83 1.02 6.808 21.427 26.553 36.051 49.021 36.391-18.723 14.625-41.532 22.447-65.021 22.447-4.085 0-8.17-.34-12.596-1.02C24.17 229.838 52.426 238 80.68 238" fill-rule="nonzero"/></symbol><symbol id="ds-social-youtube-hex" viewBox="0 0 51 50"><path fill-rule="evenodd" clip-rule="evenodd" d="M50.1 26.4l-7.2 18.9c-.4 1-1.3 1.6-2.4 1.6H10.6c-1.1-.1-2-.7-2.4-1.6L.9 26.4c-.3-1-.3-2.1 0-3.1L8.1 4.4c.4-1 1.3-1.6 2.4-1.6h29.9c1 0 2 .7 2.4 1.7L50 23.4c.4.9.4 2 .1 3zm1.2-3.5L44.1 4c-.6-1.5-2-2.4-3.6-2.4h-30c-1.6 0-3 1-3.6 2.5l-7.2 19c-.4 1.3-.4 2.6 0 3.9l7.2 18.9c.6 1.4 2 2.4 3.6 2.5h29.9c1.6 0 3-1 3.6-2.5l7.3-19c.5-1.4.5-2.7 0-4l-.6.2c0 .1.6-.2.6-.2z"/><path d="M34.8 32.7c1-.3 1.8-1 2.1-2.1.5-1.7.5-5.1.5-5.6s0-3.9-.5-5.6c-.3-1-1.1-1.8-2.1-2.1-1.7-.5-8.2-.5-9.2-.5h-.3c-1 0-7.5 0-9.2.5-1 .3-1.8 1.1-2.1 2.1-.5 1.8-.5 5.5-.5 5.7 0 .2 0 3.9.5 5.7.3 1 1.1 1.8 2.1 2.1 1.7.5 8.2.5 9.2.5h.3c1.1-.2 7.5-.2 9.2-.7zm-11.7-4.2v-7l6.3 3.5-6.3 3.5z"/></symbol><symbol id="ds-social-youtube" viewBox="0 0 256 256"><path d="M228.02 212.618c11.013-2.962 19.688-11.33 22.632-22.416 4.973-18.68 5.323-56.224 5.348-61.419v-1.203c-.025-5.195-.375-42.738-5.348-61.418-2.944-11.086-11.619-19.818-22.633-22.78-18.367-4.954-87.594-5.35-98.553-5.382h-2.93c-10.96.032-80.186.428-98.553 5.382-11.015 2.963-19.69 11.694-22.634 22.78C.151 85.691.004 125.837 0 128.083v.197c.004 2.246.15 42.393 5.35 61.922 2.944 11.086 11.618 19.454 22.633 22.416 18.367 4.954 87.594 5.35 98.553 5.382h2.93c10.959-.032 80.186-.428 98.553-5.382zM102 166V90l67 38-67 38z" fill-rule="nonzero"/></symbol><symbol id="ds-general-arrow" viewBox="0 0 256 256"><path d="M125.258 8.921c2.665-2.561 6.986-2.561 9.651 0l119.092 114.442c2.665 2.561 2.665 6.714 0 9.274L134.91 247.08c-2.665 2.561-6.986 2.561-9.65 0L114 236.26c-2.665-2.56-2.665-6.713 0-9.274L201.187 143H5a5 5 0 01-5-5v-20a5 5 0 015-5h196.189l-87.19-83.985c-2.603-2.502-2.664-6.522-.182-9.093l.182-.182z" fill-rule="nonzero"/></symbol><symbol id="ds-general-caret-down" viewBox="0 0 256 256"><path d="M40.525 71h173.95c12.034 0 18.051 14.533 9.533 23.05l-86.942 86.996c-5.273 5.272-13.859 5.272-19.132 0L30.992 94.05C22.474 85.533 28.491 71 40.525 71z" fill-rule="nonzero"/></symbol><symbol id="ds-general-caret-up" viewBox="0 0 256 256"><path d="M214.475 185H40.525c-12.034 0-18.051-14.533-9.533-23.05l86.942-86.996c5.273-5.272 13.859-5.272 19.132 0l86.942 86.996c8.518 8.517 2.501 23.05-9.533 23.05z"/></symbol><symbol id="ds-general-caret" viewBox="0 0 256 256"><path d="M214.475 185H40.525c-12.034 0-18.051-14.533-9.533-23.05l86.942-86.996c5.273-5.272 13.859-5.272 19.132 0l86.942 86.996c8.518 8.517 2.501 23.05-9.533 23.05z" fill-rule="nonzero"/></symbol><symbol id="ds-general-chat" viewBox="0 0 256 256"><path d="M245.753 227.097c4.088 0 7.775-2.444 9.42-6.22 1.6-3.777.844-8.131-1.955-11.108-.223-.178-10.042-10.752-16.84-24.393 12.219-12.041 19.55-27.148 19.55-43.632 0-35.545-33.99-64.914-78.288-70.157C163.688 45.995 130.764 28 92.42 28 41.368 28 .003 59.813.003 99.09c0 16.44 7.331 31.547 19.55 43.632-6.798 13.64-16.573 24.215-16.751 24.393-2.8 2.977-3.599 7.33-1.955 11.107 1.6 3.777 5.332 6.22 9.42 6.22 23.77 0 42.965-8.974 55.628-17.239a111.38 111.38 0 0012.44 2.133c13.996 25.548 46.876 43.543 85.22 43.543 9.242 0 18.128-1.066 26.57-3.021 12.663 8.22 31.813 17.239 55.628 17.239zm-226.6-57.405c3.91-5.021 8.975-12.263 13.107-20.616l4.621-9.242-7.331-7.242c-7.02-6.887-15.329-18.306-15.329-33.502 0-31.368 35.1-56.872 78.2-56.872 43.098 0 78.198 25.504 78.198 56.872 0 31.369-35.1 56.872-78.199 56.872-7.864 0-15.729-.888-23.37-2.665l-5.866-1.333-5.065 3.288c-8.93 5.82-22.438 12.529-38.966 14.44zm217.58 42.61c-16.484-1.867-29.99-8.62-38.921-14.396l-5.066-3.288-5.865 1.377a103.324 103.324 0 01-23.37 2.666c-28.925 0-54.207-11.508-67.714-28.57 49.452-1.421 89.04-32.612 89.04-71 0-4.222-.577-8.31-1.466-12.308 33.501 6.442 58.339 28.614 58.339 54.961 0 15.196-8.309 26.615-15.33 33.502l-7.33 7.242 4.576 9.197c4.177 8.398 9.242 15.64 13.107 20.616z" fill-rule="nonzero"/></symbol><symbol id="ds-general-checkmark" viewBox="0 0 256 256"><path d="M92.722 206.779l-71.5-71.475c-4.296-4.294-4.296-11.257 0-15.551l15.556-15.551c4.295-4.295 11.26-4.295 15.556 0L100.5 152.35 203.666 49.22c4.295-4.294 11.26-4.294 15.556 0l15.556 15.552c4.296 4.294 4.296 11.256 0 15.55l-126.5 126.457c-4.296 4.295-11.26 4.295-15.556 0z" fill-rule="nonzero"/></symbol><symbol id="ds-general-chevron-right" viewBox="0 0 256 256"><path d="M69.258 8.921l-11.26 10.82c-2.664 2.56-2.664 6.712 0 9.274L160.762 128 57.999 226.985c-2.665 2.56-2.665 6.713 0 9.274l11.26 10.82c2.664 2.561 6.985 2.561 9.65 0l119.092-114.442c2.665-2.56 2.665-6.713 0-9.274L78.91 8.921c-2.665-2.561-6.986-2.561-9.65 0z" fill-rule="nonzero"/></symbol><symbol id="ds-general-circle-hollow" viewBox="0 0 256 256"><path d="M128 0C57.29 0 0 57.29 0 128c0 70.71 57.29 128 128 128 70.71 0 128-57.29 128-128C256 57.29 198.71 0 128 0zm0 231c-56.907 0-103-46.093-103-103S71.093 25 128 25s103 46.093 103 103-46.093 103-103 103z" fill-rule="nonzero"/></symbol><symbol id="ds-general-circle-solid" viewBox="0 0 256 256"><path d="M0 128c0 70.708 57.313 128 128 128s128-57.292 128-128C256 57.333 198.687 0 128 0S0 57.333 0 128z" fill-rule="nonzero"/></symbol><symbol id="ds-general-container" viewBox="0 0 256 256"><g fill-rule="evenodd"><path d="M251.542 135.404L215.2 232.32c-1.96 4.959-6.708 8.256-12.142 8.389H53.093c-5.454-.302-10.25-3.588-12.17-8.443L4.587 135.364c-1.73-5.222-1.723-10.708.01-15.757l36.186-96.932c1.958-4.954 6.706-8.251 12.14-8.384h150.05c5.182.132 9.94 3.424 12.087 8.454l36.339 96.905c1.7 4.982 1.742 10.464.144 15.754zm6.038-18.022L221.2 20.368l-.05-.123c-3.13-7.428-10.202-12.34-18.096-12.537H52.842c-8.152.197-15.252 5.128-18.207 12.606l-36.238 97.073c-2.241 6.526-2.241 13.516-.038 20.117l.04.114 36.38 97.014c2.921 7.394 10.057 12.256 18.063 12.656l.165.004h150.13c8.152-.197 15.252-5.128 18.206-12.606l36.402-97.068.065-.193c2.032-6.641 1.984-13.595-.199-19.955l-3.114 1.068 3.083-1.156z"/><path d="M111.463 164.928l-33.515-33.504a5.153 5.153 0 010-7.29l7.292-7.29a5.157 5.157 0 017.292 0l22.577 22.57 48.36-48.342a5.156 5.156 0 017.291 0l7.292 7.29a5.153 5.153 0 010 7.29l-59.297 59.275a5.157 5.157 0 01-7.292 0z"/></g></symbol><symbol id="ds-general-cross" viewBox="0 0 256 256"><path d="M40.707 19.494l86.973 86.973 86.975-86.973a5 5 0 016.89-.172l.181.172 14.143 14.142a5.001 5.001 0 010 7.071l-86.975 86.973 86.975 86.975a5.001 5.001 0 010 7.071l-14.143 14.143a5 5 0 01-7.07 0l-86.976-86.975-86.973 86.975a5.001 5.001 0 01-6.89.172l-.181-.172-14.142-14.143a4.998 4.998 0 010-7.07l86.973-86.976-86.973-86.973a5 5 0 010-7.071l14.142-14.142a5 5 0 017.071 0z" fill-rule="nonzero"/></symbol><symbol id="ds-general-download" viewBox="0 0 256 256"><path d="M217.973 112.783c2.703-2.693 2.703-7.047 0-9.682l-4.081-4.068a6.924 6.924 0 00-9.774 0l-66.345 66.397L138 27.875c0-3.781-3.105-6.875-6.899-6.875h-5.749c-3.794 0-6.899 3.094-6.899 6.875l-.226 137.555-66.345-66.454a6.924 6.924 0 00-9.774 0l-4.081 4.068a6.862 6.862 0 000 9.739l85.086 85.072a6.922 6.922 0 009.774 0l85.086-85.072zM238 229.125c0 3.712-3.094 6.75-6.875 6.75H24.875c-3.781 0-6.875-3.038-6.875-6.75v-4.5c0-3.713 3.094-6.75 6.875-6.75h206.25c3.781 0 6.875 3.037 6.875 6.75v4.5z" fill-rule="nonzero"/></symbol><symbol id="ds-general-expand" viewBox="0 0 256 256"><path d="M245.333 106.667h-96v-96C149.333 4.773 144.56 0 138.667 0h-21.334c-5.893 0-10.666 4.773-10.666 10.667v96h-96C4.773 106.667 0 111.44 0 117.333v21.334c0 5.893 4.773 10.666 10.667 10.666h96v96c0 5.894 4.773 10.667 10.666 10.667h21.334c5.893 0 10.666-4.773 10.666-10.667v-96h96c5.894 0 10.667-4.773 10.667-10.666v-21.334c0-5.893-4.773-10.666-10.667-10.666z" fill-rule="nonzero"/></symbol><symbol id="ds-general-external-link" viewBox="0 0 256 256"><path d="M228.571 0H27.43C12.28 0 0 12.28 0 27.429V228.57C0 243.72 12.28 256 27.429 256H228.57c15.15 0 27.43-12.28 27.43-27.429V27.43C256 12.28 243.72 0 228.571 0zm8.64 228.061c0 5.045-4.105 9.15-9.15 9.15H26.765c-5.046 0-9.15-4.105-9.15-9.15V26.765c0-5.046 4.104-9.15 9.15-9.15H228.06c5.045 0 9.15 4.104 9.15 9.15V228.06zM57.208 195.55a6.881 6.881 0 010-9.731l111.898-111.9-.405-.405-51.582.196a6.88 6.88 0 01-6.88-6.881v-5.733a6.88 6.88 0 016.88-6.881l77.982-.197c3.8 0 6.88 3.08 6.88 6.881l-.196 77.982c0 3.8-3.08 6.88-6.88 6.88h-5.734a6.88 6.88 0 01-6.88-6.88l.195-51.582-.405-.405L70.182 198.792a6.88 6.88 0 01-9.73 0l-3.244-3.243z" fill-rule="nonzero"/></symbol><symbol id="ds-general-favourite" viewBox="0 0 256 256"><path d="M128.305 64.402l14.477-14.107c23.884-23.274 62.04-23.027 85.62.554.161.16.321.322.48.485 22.957 23.49 22.525 61.141-.964 84.098l-86.249 85.273c-6.154 6.085-16.03 6.173-22.292.2l-90.175-86.002c-23.48-22.393-24.36-59.58-1.967-83.059.32-.336.644-.667.972-.995 23.581-23.581 61.736-23.828 85.62-.554l14.478 14.107z" fill-rule="evenodd"/></symbol><symbol id="ds-general-file" viewBox="0 0 256 256"><path d="M144 68V0H44c-6.65 0-12 5.35-12 12v232c0 6.65 5.35 12 12 12h168c6.65 0 12-5.35 12-12V80h-68c-6.6 0-12-5.4-12-12zm80-6v3.103h-64V0h3.05c3.2 0 6.25 1.272 8.5 3.56l48.95 49.845a12.277 12.277 0 013.5 8.596z" fill-rule="nonzero"/></symbol><symbol id="ds-general-filter" viewBox="0 0 256 256"><path d="M243.988 0H12.014C1.354 0-4.024 12.933 3.529 20.485l92.47 92.485V216c0 3.915 1.911 7.585 5.12 9.83l40 27.99c7.89 5.525 18.88-.074 18.88-9.83V112.97l92.474-92.485C260.01 12.948 254.67 0 243.988 0z" fill-rule="nonzero"/></symbol><symbol id="ds-general-hamburger" viewBox="0 0 256 256"><path d="M243.5 191c6.904 0 12.5 5.596 12.5 12.5s-5.596 12.5-12.5 12.5h-231C5.596 216 0 210.404 0 203.5S5.596 191 12.5 191h231zm0-75c6.904 0 12.5 5.596 12.5 12.5s-5.596 12.5-12.5 12.5h-231C5.596 141 0 135.404 0 128.5S5.596 116 12.5 116h231zm0-75c6.904 0 12.5 5.596 12.5 12.5S250.404 66 243.5 66h-231C5.596 66 0 60.404 0 53.5S5.596 41 12.5 41h231z" fill-rule="nonzero"/></symbol><symbol id="ds-general-home" viewBox="0 0 256 256"><path d="M152.992 240.011l64.008-.165c4.416 0 8-3.584 8-8v-121.54l20.433 16.691c.609.495 1.739.896 2.522.896 1.05 0 2.44-.661 3.104-1.476l5.05-6.206c.492-.607.891-1.734.891-2.516 0-1.059-.67-2.456-1.496-3.119L139.065 19.564C136.625 17.597 132.102 16 128.97 16c-3.134 0-7.657 1.597-10.097 3.564l-116.4 95.012C1.66 115.239 1 116.628 1 117.677c0 .783.4 1.912.893 2.52l5.051 6.205c.663.813 2.052 1.473 3.1 1.473.776 0 1.895-.393 2.5-.878l20.433-16.692V231.82a8.003 8.003 0 008.001 8.001h64.008c4.416 0 8-3.584 8-8v-64.009l32.005.15v64.048a8.003 8.003 0 008 8.001zm7.996-15.977v-64.093c-.014-4.389-3.587-7.973-7.976-8l-48.006-.135h-.025a8.003 8.003 0 00-8.001 8v64.078H48.979V97.25l80.01-65.293 80.01 65.293-.056 126.635h.05l-48.005.15z" fill-rule="evenodd"/></symbol><symbol id="ds-general-html" viewBox="0 0 48 64"><style>.st0{fill:#c05701}</style><path class="st0" d="M28 17V0H3C1.3 0 0 1.3 0 3v58c0 1.7 1.3 3 3 3h42c1.7 0 3-1.3 3-3V20H31c-1.7 0-3-1.3-3-3zM12.6 46.6H10v-4.9H6.2v4.9H3.6V35.2h2.6v4.5H10v-4.5h2.6v11.4zm9.7-9.4h-2.8v9.4H17v-9.4h-2.8v-2h8.1v2zm16-2h2.6v9.4h4.2v2h-6.8V35.2zm-2.5 0v11.4h-2.4v-5.4V40v-1.3-1h-.1L31 46.6h-2.4l-2.4-9h-.1v1c0 .4 0 .9.1 1.4v6.6h-2.3V35.2h3.5l2.4 8.7 2.4-8.7h3.6z"/><path class="st0" d="M47.1 13.3L34.9.9c-.6-.6-1.3-.9-2.1-.9H32v16.2h16v-.8c0-.7-.3-1.5-.9-2.1z"/></symbol><symbol id="ds-general-id-card" viewBox="0 0 256 256"><path d="M221.333 41H34.667C24.36 41 16 49.35 16 59.643v136.714C16 206.65 24.361 215 34.667 215h186.666C231.64 215 240 206.65 240 196.357V59.643C240 49.35 231.639 41 221.333 41zM84.444 78.286c13.728 0 24.89 11.147 24.89 24.857C109.333 116.853 98.171 128 84.443 128c-13.727 0-24.888-11.147-24.888-24.857 0-13.71 11.16-24.857 24.888-24.857zM128 170.257c0 4.117-3.889 7.457-8.711 7.457H49.6c-4.822 0-8.711-3.34-8.711-7.457V162.8c0-12.35 11.705-22.371 26.133-22.371h1.945c4.783 1.98 9.994 3.107 15.477 3.107a40.188 40.188 0 0015.478-3.107h1.945c14.427 0 26.133 10.02 26.133 22.371v7.457zm87.111-20.507c0 1.709-1.4 3.107-3.111 3.107h-56a3.118 3.118 0 01-3.111-3.107v-6.214c0-1.71 1.4-3.107 3.111-3.107h56a3.118 3.118 0 013.111 3.107v6.214zm0-24.857c0 1.709-1.4 3.107-3.111 3.107h-56a3.118 3.118 0 01-3.111-3.107v-6.214c0-1.71 1.4-3.108 3.111-3.108h56a3.119 3.119 0 013.111 3.108v6.214zm0-24.857c0 1.709-1.4 3.107-3.111 3.107h-56a3.118 3.118 0 01-3.111-3.107V93.82c0-1.709 1.4-3.107 3.111-3.107h56a3.118 3.118 0 013.111 3.107v6.215z" fill-rule="nonzero"/></symbol><symbol id="ds-general-info" viewBox="0 0 256 256"><path d="M128 0C57.313 0 0 57.333 0 128c0 70.708 57.313 128 128 128s128-57.292 128-128C256 57.333 198.687 0 128 0zm0 56.774c11.972 0 21.677 9.705 21.677 21.678 0 11.972-9.705 21.677-21.677 21.677s-21.677-9.705-21.677-21.677c0-11.973 9.705-21.678 21.677-21.678zm28.903 131.097a6.194 6.194 0 01-6.193 6.194h-45.42a6.194 6.194 0 01-6.193-6.194v-12.387a6.194 6.194 0 016.193-6.194h6.194v-33.032h-6.194a6.193 6.193 0 01-6.193-6.193v-12.388a6.193 6.193 0 016.193-6.193h33.033a6.193 6.193 0 016.193 6.193v51.613h6.194a6.194 6.194 0 016.193 6.194v12.387z" fill-rule="nonzero"/></symbol><symbol id="ds-general-list" viewBox="0 0 256 256"><path d="M33.574 64.967a8.396 8.396 0 008.393-8.393v-25.18A8.396 8.396 0 0033.574 23H8.394A8.396 8.396 0 000 31.393v25.18a8.396 8.396 0 008.393 8.394h25.18zm218.23-12.59A4.198 4.198 0 00256 48.18v-8.393a4.198 4.198 0 00-4.197-4.197H75.541a4.198 4.198 0 00-4.197 4.197v8.393a4.198 4.198 0 004.197 4.197h176.262zm-218.23 96.525a8.396 8.396 0 008.393-8.394v-25.18c0-4.633-3.76-8.394-8.393-8.394H8.394A8.396 8.396 0 000 115.328v25.18c0 4.633 3.76 8.394 8.393 8.394h25.18zm218.23-12.59a4.198 4.198 0 004.196-4.197v-8.394a4.198 4.198 0 00-4.197-4.196H75.541a4.198 4.198 0 00-4.197 4.196v8.394a4.198 4.198 0 004.197 4.196h176.262zm-218.23 96.524a8.396 8.396 0 008.393-8.393v-25.18a8.396 8.396 0 00-8.393-8.394H8.394A8.396 8.396 0 000 199.262v25.18a8.396 8.396 0 008.393 8.394h25.18zm218.23-12.59a4.198 4.198 0 004.196-4.197v-8.393a4.198 4.198 0 00-4.197-4.197H75.541a4.198 4.198 0 00-4.197 4.197v8.393a4.198 4.198 0 004.197 4.197h176.262z" fill-rule="nonzero"/></symbol><symbol id="ds-general-location-arrow" viewBox="0 0 256 256"><path d="M223.126 1.766L14.423 98.09c-24.079 11.238-16.053 46.555 9.632 46.555h88.3v88.298c0 25.684 35.317 33.716 46.556 9.632l96.325-208.7c8.026-19.27-12.845-40.14-32.11-32.109z" fill-rule="nonzero"/></symbol><symbol id="ds-general-map" viewBox="0 0 256 256"><path d="M170.78 227.111c2.489 0 6.43-.625 8.798-1.395l67.48-23.472c4.936-1.973 8.942-7.888 8.942-13.204V35.12c0-4.084-3.347-7.12-7.102-7.12-.872 0-1.77.164-2.65.516l-75.577 27.928h-.004L94.222 29.458C91.805 28.654 87.774 28 85.227 28c-2.974 0-5.943.467-8.805 1.395L8.942 52.867C4.007 54.84 0 60.757 0 66.07v153.92c0 4.085 3.347 7.12 7.107 7.12.87 0 1.764-.164 2.649-.516l75.577-27.928 76.445 26.982c2.419.807 6.451 1.462 9.001 1.462zM14.181 209.8l-.569-143.498 64.61-22.475v142.306L14.182 209.8zm149.374 1.396l-71.112-25.103V43.911l71.112 25.102v142.183zm14.222.088V68.978l64.04-23.671.569 143.497-64.61 22.48z" fill-rule="nonzero"/></symbol><symbol id="ds-general-minimise" viewBox="0 0 256 256"><path d="M245.333 106.667H10.667C4.773 106.667 0 111.44 0 117.333v21.334c0 5.893 4.773 10.666 10.667 10.666h234.666c5.894 0 10.667-4.773 10.667-10.666v-21.334c0-5.893-4.773-10.666-10.667-10.666z" fill-rule="nonzero"/></symbol><symbol id="ds-general-paperclip" viewBox="0 0 256 256"><path d="M74.484 256c16.56 0 33.12-6.295 45.726-18.886l109.013-108.868a5.996 5.996 0 000-8.486l-2.834-2.83a6.013 6.013 0 00-8.497 0L108.88 225.799c-18.965 18.94-49.825 18.94-68.791 0-18.966-18.942-18.966-49.76 0-68.7L171.294 26.063c13.443-13.424 35.316-13.425 48.76 0 13.444 13.427 13.444 35.272 0 48.697l-111.46 111.313c-7.92 7.91-20.809 7.91-28.729 0-7.921-7.91-7.921-20.782-.001-28.693l85.261-85.148a5.995 5.995 0 000-8.485l-2.834-2.83a6.011 6.011 0 00-8.496 0l-85.262 85.148c-14.168 14.15-14.168 37.174 0 51.325 14.17 14.151 37.226 14.15 51.392 0l111.46-111.313c19.692-19.665 19.692-51.663 0-71.329-19.691-19.665-51.731-19.665-71.423 0L28.757 145.782c-25.214 25.18-25.214 66.152 0 91.332C41.364 249.705 57.924 256 74.484 256z" fill-rule="nonzero"/></symbol><symbol id="ds-general-pdf" viewBox="0 0 48 64"><style>.st0{fill:#c05701}</style><path class="st0" d="M24 36.2h-1v7.4h.8c1 0 1.7-.3 2.2-.9.5-.6.7-1.6.7-2.8 0-1.3-.2-2.2-.7-2.8-.5-.6-1.1-.9-2-.9zM14.4 36.2h-.9v3.4h.7c.5 0 .9-.1 1.3-.4.3-.3.5-.7.5-1.3-.1-1.2-.6-1.7-1.6-1.7zM47.1 13.3L34.9.9c-.6-.6-1.3-.9-2.1-.9H32v16.2h16v-.8c0-.7-.3-1.5-.9-2.1z"/><path class="st0" d="M28 17V0H3C1.3 0 0 1.3 0 3v58c0 1.7 1.3 3 3 3h42c1.7 0 3-1.3 3-3V20H31c-1.7 0-3-1.3-3-3zm-9.9 22.6c-.3.6-.7 1-1.3 1.4-.6.4-1.4.5-2.4.5h-.9v4.1h-2.6V34.2h3.6c1.4 0 2.4.3 3 1 .7.6 1 1.5 1 2.6 0 .6-.1 1.2-.4 1.8zm9.7 4.5c-1 1-2.4 1.5-4.2 1.5h-3.2V34.2h3.5c1.7 0 3 .5 4 1.4 1 .9 1.5 2.3 1.5 4.2 0 1.9-.5 3.4-1.6 4.3zm3.7-9.9h6.3v2H34v2.9h3.4v2H34v4.5h-2.5V34.2z"/></symbol><symbol id="ds-general-search" viewBox="0 0 233 234"><path d="M99.874 0c55.16 0 99.874 44.742 99.874 99.934 0 21.939-7.065 42.226-19.043 58.709l47.528 47.557c6.357 6.36 6.357 16.67 0 23.03-6.352 6.356-16.654 6.36-23.01.007l-.006-.007-47.67-47.698c-16.29 11.548-36.19 18.336-57.673 18.336C44.715 199.868 0 155.126 0 99.934S44.715 0 99.874 0zm0 31.979c-37.508 0-67.914 30.424-67.914 67.955 0 37.53 30.406 67.955 67.914 67.955s67.915-30.425 67.915-67.955-30.407-67.955-67.915-67.955z" fill-rule="nonzero"/></symbol><symbol id="ds-general-success" viewBox="0 0 256 256"><path d="M256 128c0 70.693-57.307 128-128 128S0 198.693 0 128 57.307 0 128 0s128 57.307 128 128zm-142.291 67.585l94.875-94.843a8.246 8.246 0 000-11.663l-11.667-11.663a8.252 8.252 0 00-11.668 0l-77.374 77.347-36.124-36.112a8.254 8.254 0 00-11.668 0l-11.667 11.663a8.246 8.246 0 000 11.663l53.625 53.607a8.252 8.252 0 0011.668 0z" fill-rule="nonzero"/></symbol><symbol id="ds-general-swap" viewBox="0 0 256 256"><path d="M113.946 197.714H91.07v-183C91.071 9.902 87.347 6 82.753 6h-8.318c-4.594 0-8.318 3.902-8.318 8.714v183H43.242c-2.492-.001-4.745 1.55-5.732 3.948-.986 2.396-.517 5.178 1.193 7.076l35.352 39.214c1.179 1.306 2.818 2.046 4.534 2.046 1.715 0 3.355-.74 4.533-2.046l35.352-39.214c1.71-1.896 2.18-4.676 1.195-7.071-.984-2.396-3.233-3.95-5.723-3.953zm104.35-150.452l-35.35-39.214c-1.18-1.306-2.819-2.046-4.536-2.046-1.715 0-3.355.74-4.533 2.046l-35.352 39.214c-1.71 1.897-2.18 4.678-1.194 7.074.985 2.396 3.237 3.949 5.727 3.95h22.875v183c0 4.812 3.724 8.714 8.318 8.714h8.318c4.594 0 8.318-3.902 8.318-8.714v-183h22.875c2.49-.001 4.742-1.554 5.728-3.95.985-2.396.516-5.177-1.194-7.074z" fill-rule="nonzero"/></symbol><symbol id="ds-general-toolkit" viewBox="0 0 256 256"><path d="M206.06 256c4.1 0 8.198-1.55 11.298-4.699l33.943-33.943c6.199-6.299 6.199-16.397-.05-22.646l-62.188-62.238c-7.798-7.798-18.046-11.698-28.294-11.698-7.699 0-15.397 2.2-22.046 6.65L95.981 84.683V47.99L31.994 0 0 31.994 47.99 95.98h36.694l42.742 42.742c-10.299 15.547-8.599 36.643 5.098 50.34l62.238 62.238a15.98 15.98 0 0011.298 4.699zm13.248-115.877c5.198-3.1 10.098-6.799 14.497-11.248 18.896-18.896 26.345-45.691 19.846-71.636-1.15-4.75-4.85-8.498-9.548-9.798-4.75-1.3-9.849 0-13.348 3.5l-31.943 31.943-22.096-3.7-3.7-22.095 31.944-31.944c3.45-3.449 4.8-8.548 3.5-13.247-1.3-4.75-5.1-8.399-9.849-9.599-25.845-6.448-52.64.95-71.586 19.847-6.448 6.449-11.447 13.947-15.047 21.995v33.894l11.048 11.048c-4.799-20.196.8-41.092 15.347-55.64 11.348-11.347 26.295-17.446 41.892-17.446 3.45 0 6.899.3 10.348.9L155.97 51.59l6.898 41.492 41.543 6.899 34.643-34.644c3.35 19.097-2.65 38.393-16.547 52.24-4.45 4.45-9.548 7.999-14.997 10.748l11.798 11.798zM79.985 79.984H55.989l-34.843-46.49 12.348-12.348 46.49 34.843v23.995zM37.943 255.95c10.148 0 19.696-3.95 26.844-11.148l50.89-50.84c-3.349-4.599-5.898-9.648-7.748-14.897l-54.44 54.44c-8.297 8.298-22.795 8.298-31.093 0-8.548-8.549-8.548-22.546 0-31.094l73.036-73.036-11.298-11.298-73.036 73.036c-14.797 14.797-14.797 38.892 0 53.74C18.247 252 27.795 255.95 37.943 255.95zm168.067-15.997l-62.188-62.238c-4.55-4.548-7.049-10.547-7.049-16.946 0-6.4 2.5-12.448 7.05-16.947 4.548-4.55 10.547-7.049 16.946-7.049 6.399 0 12.447 2.5 16.947 7.05l62.237 62.187-33.943 33.943zM39.992 223.956c4.4 0 7.999-3.599 7.999-7.998 0-4.4-3.6-7.998-7.999-7.998-4.399 0-7.998 3.599-7.998 7.998s3.6 7.998 7.998 7.998z" fill-rule="nonzero"/></symbol><symbol id="ds-general-trash" viewBox="0 0 256 256"><path d="M211.571 38h-48.214l-3.777-7.597c-1.632-3.313-4.978-5.406-8.638-5.403h-45.924c-3.654-.014-6.993 2.085-8.598 5.403L92.643 38H44.429C40.879 38 38 40.91 38 44.5v13c0 3.59 2.878 6.5 6.429 6.5H211.57c3.55 0 6.429-2.91 6.429-6.5v-13c0-3.59-2.878-6.5-6.429-6.5zM59.502 212.953C60.137 223.097 68.55 231 78.712 231h98.576c10.163 0 18.575-7.903 19.21-18.047L205 77H51l8.502 135.953z" fill-rule="nonzero"/></symbol><symbol id="ds-general-warning-circle" viewBox="0 0 256 256"><path d="M0 128c0 70.708 57.313 128 128 128s128-57.292 128-128C256 57.333 198.687 0 128 0S0 57.333 0 128zm128 25.806c13.112 0 23.742 10.63 23.742 23.742 0 13.113-10.63 23.742-23.742 23.742s-23.742-10.63-23.742-23.742 10.63-23.742 23.742-23.742zm22.54-85.34l-3.828 70.194a6.193 6.193 0 01-6.184 5.856h-25.056a6.192 6.192 0 01-6.184-5.856l-3.829-70.193a6.195 6.195 0 016.184-6.532h32.714a6.195 6.195 0 016.184 6.532z" fill-rule="nonzero"/></symbol><symbol id="ds-general-warning-triangle" viewBox="0 0 256 256"><path d="M252.13 207.787c8.171 13.872-2.086 31.213-18.407 31.213H21.274c-16.352 0-26.562-17.368-18.406-31.213L109.094 27.4c8.175-13.88 28.652-13.854 36.813 0L252.13 207.787zM127.5 170.492c-11.247 0-20.364 8.93-20.364 19.946 0 11.015 9.117 19.945 20.364 19.945s20.365-8.93 20.365-19.946c0-11.015-9.118-19.945-20.365-19.945zM108.166 98.8l3.284 58.969c.153 2.76 2.483 4.92 5.304 4.92h21.492c2.821 0 5.15-2.16 5.304-4.92l3.284-58.969c.167-2.98-2.256-5.486-5.304-5.486h-28.06c-3.048 0-5.47 2.506-5.304 5.486z" fill-rule="nonzero"/></symbol></svg>